<mxfile host="app.diagrams.net" modified="2021-03-10T20:57:39.578Z" agent="5.0 (Windows NT 10.0; Win64; x64) AppleWebKit/537.36 (KHTML, like Gecko) Chrome/88.0.4324.190 Safari/537.36" etag="c9vKZgulPMKdjJO6zKDY" version="14.4.6" type="github">
  <diagram id="mth1XHLRiR3HEthGoQ_H" name="Page-1">
    <mxGraphModel dx="1054" dy="517" grid="1" gridSize="10" guides="1" tooltips="1" connect="1" arrows="1" fold="1" page="1" pageScale="1" pageWidth="850" pageHeight="1100" math="0" shadow="0">
      <root>
        <mxCell id="0" />
        <mxCell id="1" parent="0" />
        <mxCell id="E3tF4ejNkiCeJlpFcjpz-1" value="Activity" style="rounded=1;whiteSpace=wrap;html=1;arcSize=40;fontColor=#000000;fillColor=#ffffc0;strokeColor=#ff0000;sketch=0;" vertex="1" parent="1">
          <mxGeometry x="140" y="60" width="120" height="40" as="geometry" />
        </mxCell>
        <mxCell id="E3tF4ejNkiCeJlpFcjpz-2" value="" style="edgeStyle=orthogonalEdgeStyle;html=1;verticalAlign=bottom;endArrow=open;endSize=8;strokeColor=#ff0000;fillColor=#B2C9AB;fontColor=#46495D;" edge="1" source="E3tF4ejNkiCeJlpFcjpz-1" parent="1">
          <mxGeometry relative="1" as="geometry">
            <mxPoint x="200" y="160" as="targetPoint" />
          </mxGeometry>
        </mxCell>
      </root>
    </mxGraphModel>
  </diagram>
</mxfile>
